<?xml version="1.0" encoding="utf-8"?>
<!-- Generator: Adobe Illustrator 23.0.2, SVG Export Plug-In . SVG Version: 6.00 Build 0)  -->
<svg version="1.1" id="Layer_1" xmlns="http://www.w3.org/2000/svg" xmlns:xlink="http://www.w3.org/1999/xlink" x="0px" y="0px"
	 viewBox="0 0 512 512" style="enable-background:new 0 0 512 512;" xml:space="preserve">
<style type="text/css">
	.st0{fill:#39B54A;}
	.st1{fill:#191919;}
</style>
<g>
	<g>
		<path class="st0" d="M484,170.5l-16-23.5c-1.6-2.3-4.2-3.7-7-3.6l-31,0.8c-2.7,0.1-5.1,1.4-6.6,3.7l-3.2,4.7l-32.1,20.6
			c-2.1,1.4-3.5,3.6-3.8,6.2l-0.7,7.5h-12.5l-24.5-20c-2-1.6-4.6-2.2-7.1-1.6c-2.5,0.6-4.5,2.3-5.6,4.6l-10.2,22.1L226,150.1
			l5.6-21.4c1.1-4.2-1.2-8.5-5.3-9.9l-8.1-2.8l-13.4-20.4l1.9-0.5c2.5-0.6,4.6-2.4,5.6-4.7c1-2.4,0.9-5.1-0.4-7.3l-4.6-8.1L225,38.8
			c1.9-3.8,0.5-8.5-3.2-10.7L206,18.6c-1.4-0.8-3-1.3-4.7-1.2l-33.9,1.8L125.3,0.7c-2.4-1.1-5.2-0.9-7.5,0.5L95,14.8
			c-2.3,1.4-3.7,3.7-4,6.3s0.8,5.2,2.8,6.9l12.7,11.1l0.7,28.2c0,2,0.8,3.9,2.2,5.4l20.8,22.7l-17.3,31.2c-0.7,1.2-1,2.5-1,3.8
			l-0.1,3.4l-30.4,33.4L66,162.3c-4.3-1.4-8.8,0.9-10.3,5.2l-8.5,24.9c-1.1,3.3,0,7,2.8,9.2l4.4,3.3l11.1,22.8l0.1,5l-33.6,12
			c-3.1,1.1-5.3,4-5.4,7.3c-0.2,3.3,1.6,6.4,4.6,7.8l10.3,5c-1.5,1-2.6,2.6-3.1,4.3c-0.7,2.4-0.3,4.9,1,7l12.5,18.7
			c0.8,1.2,1.9,2.2,3.2,2.8l20.4,10c3.5,1.7,7.8,0.7,10.2-2.4l9-11.8l4.8,11.4l-2.9,15.2c-0.3,1.5-0.2,3,0.4,4.4l67.4,182.1
			c1.2,3.2,4.3,5.4,7.7,5.4c1,0,2-0.2,2.9-0.5l16.5-6.3c1.9-0.7,3.5-2.1,4.4-4l3.6-7.1l5.6-6.9l14.1-17c0.9-1.1,1.5-2.4,1.8-3.8
			l7.5-41.9c0.2-1.3,0.1-2.7-0.3-4l-3.9-11.9l7.5-22.7l6.3-3.9l7.8-0.9c2.3-0.3,4.3-1.5,5.7-3.3l9.7-13.3c3.3-1.4,7.1-2.4,9.8-4.9
			c3.1-2.9,6-6.1,9.1-9.1c2.4-2.4,4.7-4.4,6.1-7.6c1.5-3.6,3-7.2,4.5-10.8l29.3-16.1c2.3-1.3,3.9-3.6,4.2-6.2l1.4-11.6l10.9-8.4
			l14.7,2.9c2.8,0.6,5.7-0.4,7.6-2.5s2.7-5,1.9-7.8l-14-51.4l17.2-7.1l11.8,7.7c1.1,0.7,2.3,1.1,3.6,1.3l8.7,1l-9.8,14.4
			c-1.7,2.6-1.9,5.9-0.4,8.6c1.5,2.7,4.4,4.3,7.6,4.2l6.4-0.3l14.9,20.3c2,2.7,5.3,3.9,8.6,3.1c3.2-0.8,5.7-3.4,6.2-6.7l4.1-25.5
			l6.9,1.3c2.2,0.4,4.5-0.1,6.3-1.3c1.8-1.3,3-3.2,3.4-5.4l4.5-28.1l4-5.2c0.9-1.1,1.4-2.5,1.6-3.9l0.7-5l24.2-8.4
			c2.7-0.9,4.8-3.2,5.3-6.1l2.8-13.4C485.7,174.6,485.3,172.3,484,170.5z M467.3,182.2l-24.6,8.5c-2.9,1-5,3.6-5.5,6.7l-1.1,7.9
			l-3.9,5.2c-0.8,1.1-1.4,2.3-1.6,3.7l-3.5,21.7l-6.9-1.3c-2.2-0.4-4.5,0.1-6.3,1.3c-1.8,1.3-3,3.2-3.4,5.4l-2.3,14.4l-5.8-8
			c-0.7-0.9-1.5-1.7-2.4-2.2l9.1-13.5c1.6-2.4,1.9-5.4,0.7-8.1c-1.2-2.6-3.7-4.4-6.6-4.7l-20.3-2.2l-13.8-9
			c-2.3-1.5-5.1-1.8-7.7-0.7l-27.9,11.6c-3.8,1.6-5.9,5.8-4.8,9.8l12.4,45.5l-5.3-1.1c-2.3-0.5-4.7,0.1-6.6,1.5l-16.6,12.7
			c-1.8,1.3-2.9,3.3-3.2,5.5l-1.3,10.8l-28.1,15.4c-1.6,0.9-2.9,2.3-3.6,4.1l-5.4,13l-10.8,10.8l-7.5,3.1c-1.4,0.6-2.6,1.5-3.5,2.7
			l-9,12.2l-6.1,0.7c-1.2,0.1-2.3,0.5-3.4,1.2l-10.4,6.4c-1.6,1-2.9,2.6-3.5,4.4l-9.3,28.1c-0.6,1.7-0.6,3.5,0,5.2l4.1,12.5
			l-6.7,37.7l-12.8,15.3l-6.2,7.6c-0.4,0.5-0.7,1-1,1.5l-2.6,5.1l-5.8,2.2L113.1,321l2.9-15.4c0.3-1.6,0.1-3.2-0.5-4.7l-6.7-15.9
			l0.4-13.1c0.1-3.6-2.1-6.8-5.5-8c-3.4-1.2-7.1-0.1-9.3,2.8l-17.8,23.3l-12.3-6.1l-5.6-9.5l4.6-2.4c2.7-1.4,4.5-4.3,4.4-7.4
			c0-3.1-1.8-5.9-4.6-7.3l-3.9-1.9l-3.4-1.7l20.8-7.5c3.3-1.2,5.5-4.4,5.4-7.9l-0.2-12.7c0-1.2-0.3-2.4-0.8-3.5l-12.8-26.2
			c-0.6-1.1-1.4-2.1-2.4-2.9l-1.2-0.9l4-11.6l12.8,4.1c3.1,1,6.4,0.1,8.6-2.3l36-39.6c1.3-1.5,2.1-3.4,2.1-5.4l0.1-4.5l19.2-34.6
			c1.7-3.1,1.3-6.9-1.1-9.6l-22.8-24.8l-0.7-28.7c-0.1-2.3-1.1-4.5-2.8-6l-6.9-6.1l9.4-5.6L162.6,35c1.2,0.5,2.5,0.7,3.7,0.7
			l33.3-1.8l7.3,4.4l-16.3,33.4c-1.2,2.4-1.1,5.3,0.2,7.7l1.4,2.4l-2.6,0.6c-2.6,0.6-4.7,2.5-5.7,5c-1,2.5-0.7,5.3,0.8,7.5
			l21.3,32.5c1,1.5,2.5,2.7,4.2,3.3l3.6,1.2l-5.5,20.8c-1,3.9,1,8.1,4.7,9.7l111.6,47.6c4.1,1.8,8.8-0.1,10.7-4.1l9.1-19.8
			l18.6,15.1c1.5,1.2,3.3,1.9,5.2,1.9h22.9c4.2,0,7.8-3.2,8.2-7.5l1-10.9l30.2-19.3c1-0.6,1.8-1.4,2.4-2.4l1.7-2.6l22.2-0.6
			l11.5,16.9L467.3,182.2z"/>
	</g>
</g>
<path class="st0" d="M186.8,263.8v15.1c0,4.5,3.6,8.1,8.1,8.1c4.5,0,8.1-3.6,8.1-8.1v-15.1h14.2c4.5,0,8.1-3.6,8.1-8.1
	c0-4.5-3.6-8.1-8.1-8.1h-14.2v-13.2c0-4.5-3.6-8.1-8.1-8.1c-4.5,0-8.1,3.6-8.1,8.1v13.2h-14.2c-4.5,0-8.1,3.6-8.1,8.1
	c0,4.5,3.6,8.1,8.1,8.1H186.8z"/>
<g>
	<path class="st1" d="M194.7,326.5c-38.5,0-69.8-31.3-69.8-69.8c0-38.5,31.3-69.8,69.8-69.8c38.5,0,69.8,31.3,69.8,69.8
		C264.6,295.2,233.2,326.5,194.7,326.5z M194.7,200.4c-31,0-56.3,25.3-56.3,56.3s25.3,56.3,56.3,56.3s56.3-25.3,56.3-56.3
		S225.8,200.4,194.7,200.4z"/>
</g>
</svg>
