<?xml version="1.0" encoding="utf-8"?>
<!-- Generator: Adobe Illustrator 23.0.2, SVG Export Plug-In . SVG Version: 6.00 Build 0)  -->
<svg version="1.1" id="Layer_1" xmlns="http://www.w3.org/2000/svg" xmlns:xlink="http://www.w3.org/1999/xlink" x="0px" y="0px"
	 viewBox="0 0 247.3 227.7" style="enable-background:new 0 0 247.3 227.7;" xml:space="preserve">
<style type="text/css">
	.st0{fill:#39B54A;}
</style>
<title>Chip</title>
<g>
	<path class="st0" d="M41.8,87.5c4.2-0.7,9.7-1.3,16.7-1.3c8.6,0,14.9,2,18.9,5.6c3.7,3.2,5.9,8.1,5.9,14.1c0,6.1-1.8,10.9-5.2,14.4
		c-4.6,4.9-12.1,7.4-20.6,7.4c-2.6,0-5-0.1-7-0.6v27h-8.7V87.5z M50.5,120c1.9,0.5,4.3,0.7,7.2,0.7c10.5,0,16.9-5.1,16.9-14.4
		c0-8.9-6.3-13.2-15.9-13.2c-3.8,0-6.7,0.3-8.2,0.7V120z"/>
	<path class="st0" d="M103.7,86.7v67.4H95V86.7H103.7z"/>
	<path class="st0" d="M131.7,94.1h-20.5v-7.4h49.9v7.4h-20.6v60h-8.8V94.1z"/>
	<path class="st0" d="M166.8,143.5c3.9,2.4,9.6,4.4,15.6,4.4c8.9,0,14.1-4.7,14.1-11.5c0-6.3-3.6-9.9-12.7-13.4
		c-11-3.9-17.8-9.6-17.8-19.1c0-10.5,8.7-18.3,21.8-18.3c6.9,0,11.9,1.6,14.9,3.3l-2.4,7.1c-2.2-1.2-6.7-3.2-12.8-3.2
		c-9.2,0-12.7,5.5-12.7,10.1c0,6.3,4.1,9.4,13.4,13c11.4,4.4,17.2,9.9,17.2,19.8c0,10.4-7.7,19.4-23.6,19.4
		c-6.5,0-13.6-1.9-17.2-4.3L166.8,143.5z"/>
</g>
</svg>
