<?xml version="1.0" encoding="utf-8"?>
<!-- Generator: Adobe Illustrator 23.0.2, SVG Export Plug-In . SVG Version: 6.00 Build 0)  -->
<svg version="1.1" id="Capa_1" xmlns="http://www.w3.org/2000/svg" xmlns:xlink="http://www.w3.org/1999/xlink" x="0px" y="0px"
	 viewBox="0 0 480 480" style="enable-background:new 0 0 480 480;" xml:space="preserve">
<style type="text/css">
	.st0{fill:#191919;}
	.st1{fill:#39B54A;}
</style>
<g>
	<g>
		<rect x="136" y="408" class="st0" width="16" height="16"/>
	</g>
</g>
<g>
	<g>
		<rect x="168" y="408" class="st0" width="16" height="16"/>
	</g>
</g>
<g>
	<g>
		<rect x="136" y="312" class="st0" width="16" height="16"/>
	</g>
</g>
<g>
	<g>
		<rect x="168" y="312" class="st0" width="16" height="16"/>
	</g>
</g>
<path class="st0" d="M376,120c-4.6,0-9.3,0.3-13.8,0.9C340.6,49,264.8,8.2,192.9,29.8c-54.8,16.4-93.5,65.5-96.7,122.6
	c-2.7-0.3-5.5-0.4-8.2-0.4c-48.6,0-88,39.4-88,88c0,48.6,39.4,88,88,88h15.1c0.1-5.3,0.5-10.7-0.1-16H88c-39.8,0-72-32.2-72-72
	c0-39.8,32.2-72,72-72c4.9,0,9.7,0.5,14.5,1.5c2.4,0.5,4.8-0.2,6.7-1.7c1.9-1.5,2.9-3.9,2.9-6.3c0-0.2-0.1-1.3-0.1-1.5
	c0-66.2,53.6-120,119.9-120c55.5,0,103.7,38,116.7,91.9c1,4.2,5.2,6.8,9.4,6c47.6-10,94.2,20.5,104.2,68.1
	c10,47.6-20.5,94.2-68.1,104.2c-5.6,1.2-11.3,1.8-17,1.9c-0.1,5.3,0.1,10.7,0.3,16c56.8-0.7,102.6-47,102.6-104
	C480,166.6,433.4,120,376,120z"/>
<path class="st1" d="M376.5,312c-0.2,0-0.4,0-0.5,0v-24c0-4.4-3.6-8-8-8h-80v-72h73.5c4.4,12.5,18.1,19,30.6,14.6
	c12.5-4.4,19-18.1,14.6-30.6c-4.4-12.5-18.1-19-30.6-14.6c-6.8,2.4-12.2,7.8-14.6,14.6H280c-4.4,0-8,3.6-8,8v80h-40V128h33.5
	c4.4,12.5,18.1,19,30.6,14.6c12.5-4.4,19-18.1,14.6-30.6c-4.4-12.5-18.1-19-30.6-14.6c-6.8,2.4-12.2,7.8-14.6,14.6H224
	c-4.4,0-8,3.6-8,8v160h-40v-56c0-4.4-3.6-8-8-8h-41.5c-4.4-12.5-18.1-19-30.6-14.6c-12.5,4.4-19,18.1-14.6,30.6
	c4.4,12.5,18.1,19,30.6,14.6c6.8-2.4,12.2-7.8,14.6-14.6H160v48h-48c-4.4,0-8,3.6-8,8v24h-0.6c0.6,5.3,0.2,10.7,0.1,16h0.4v24
	c0,4.4,3.6,8,8,8h16v16h-16c-4.4,0-8,3.6-8,8v64c0,4.4,3.6,8,8,8h256c4.4,0,8-3.6,8-8v-64c0-4.4-3.6-8-8-8h-16v-16h16
	c4.4,0,8-3.6,8-8v-24c0.3,0,0.6,0,0.9,0C376.7,322.7,376.5,317.3,376.5,312z M384,192c4.4,0,8,3.6,8,8c0,4.4-3.6,8-8,8
	c-4.4,0-8-3.6-8-8C376,195.6,379.6,192,384,192z M288,112c4.4,0,8,3.6,8,8c0,4.4-3.6,8-8,8c-4.4,0-8-3.6-8-8
	C280,115.6,283.6,112,288,112z M104,232c-4.4,0-8-3.6-8-8c0-4.4,3.6-8,8-8c4.4,0,8,3.6,8,8C112,228.4,108.4,232,104,232z M360,392
	v48H120v-48H360z M144,376v-16h192v16H144z M360,344H120v-48h240V344z"/>
</svg>
