<?xml version="1.0" encoding="utf-8"?>
<!-- Generator: Adobe Illustrator 23.0.2, SVG Export Plug-In . SVG Version: 6.00 Build 0)  -->
<svg version="1.1" id="Capa_1" xmlns="http://www.w3.org/2000/svg" xmlns:xlink="http://www.w3.org/1999/xlink" x="0px" y="0px"
	 viewBox="0 0 512 512" style="enable-background:new 0 0 512 512;" xml:space="preserve">
<style type="text/css">
	.st0{fill:#191919;}
	.st1{fill:#39B54A;}
</style>
<g>
	<g>
		<path class="st0" d="M394.7,0H32C14.3,0,0,14.3,0,32v256c0,17.7,14.3,32,32,32h138.7v-21.3H32c-5.9,0-10.7-4.8-10.7-10.7V32
			c0-5.9,4.8-10.7,10.7-10.7h362.7c5.9,0,10.7,4.8,10.7,10.7v192h21.3V32C426.7,14.3,412.3,0,394.7,0z"/>
	</g>
</g>
<g>
	<g>
		<rect x="128" y="309.3" class="st0" width="21.3" height="64"/>
	</g>
</g>
<g>
	<g>
		<path class="st1" d="M389.8,225.9c-21.7-21.7-51.2-34-82-34c-64,0-115.9,51.9-115.9,115.9c0,64,51.9,115.9,115.9,115.9
			c30.7,0,60.2-12.2,81.9-33.9C435.1,344.6,435.1,271.2,389.8,225.9z M307.8,402.5c-52.2,0-94.5-42.4-94.5-94.6
			c0-52.2,42.4-94.5,94.6-94.5c25.1-0.1,49.2,9.9,66.9,27.7c17.7,17.7,27.7,41.8,27.7,66.9C402.4,360.1,360,402.5,307.8,402.5z"/>
	</g>
</g>
<g>
	<g>
		<path class="st1" d="M508.9,464l-67-66.9c-2-2-4.7-3.1-7.5-3.1c-2.8,0-5.5,1.1-7.5,3.1l-29.8,29.8c-4.2,4.2-4.2,10.9,0,15.1l67,67
			c2,2,4.7,3.1,7.5,3.1l0,0c2.8,0,5.5-1.1,7.5-3.2l29.8-29.8C513,474.9,513,468.2,508.9,464z M471.6,486.3l-51.9-51.9l14.7-14.7
			l51.9,51.9L471.6,486.3z"/>
	</g>
</g>
<g>
	<g>
		
			<rect x="390.2" y="374.6" transform="matrix(0.7071 -0.7071 0.7071 0.7071 -166.0501 400.8898)" class="st1" width="21.3" height="52.6"/>
	</g>
</g>
<g>
	<g>
		<path class="st0" d="M309.3,234.7V256c29.4,0,53.3,23.9,53.3,53.3H384C384,268.1,350.6,234.7,309.3,234.7z"/>
	</g>
</g>
<g>
	<g>
		<rect x="106.7" y="362.7" class="st0" width="85.3" height="21.3"/>
	</g>
</g>
<g>
	<g>
		<path class="st1" d="M160,42.7c-17.7,0-32,14.3-32,32s14.3,32,32,32s32-14.3,32-32S177.7,42.7,160,42.7z M160,85.3
			c-5.9,0-10.7-4.8-10.7-10.7S154.1,64,160,64s10.7,4.8,10.7,10.7C170.7,80.6,165.9,85.3,160,85.3z"/>
	</g>
</g>
<g>
	<g>
		<path class="st1" d="M234.7,117.3c-17.7,0-32,14.3-32,32s14.3,32,32,32s32-14.3,32-32S252.3,117.3,234.7,117.3z M234.7,160
			c-5.9,0-10.7-4.8-10.7-10.7c0-5.9,4.8-10.7,10.7-10.7c5.9,0,10.7,4.8,10.7,10.7C245.3,155.2,240.6,160,234.7,160z"/>
	</g>
</g>
<g>
	<g>
		<path class="st1" d="M96,117.3c-17.7,0-32,14.3-32,32s14.3,32,32,32s32-14.3,32-32S113.7,117.3,96,117.3z M96,160
			c-5.9,0-10.7-4.8-10.7-10.7c0-5.9,4.8-10.7,10.7-10.7c5.9,0,10.7,4.8,10.7,10.7C106.7,155.2,101.9,160,96,160z"/>
	</g>
</g>
<g>
	<g>
		
			<rect x="85" y="101.3" transform="matrix(0.7071 -0.7071 0.7071 0.7071 -43.2698 119.5432)" class="st1" width="75.4" height="21.3"/>
	</g>
</g>
<g>
	<g>
		
			<rect x="186.6" y="74.3" transform="matrix(0.7071 -0.7071 0.7071 0.7071 -21.4332 172.316)" class="st1" width="21.3" height="75.4"/>
	</g>
</g>
<g>
	<g>
		<path class="st1" d="M309.3,42.7c-17.7,0-32,14.3-32,32s14.3,32,32,32s32-14.3,32-32C341.3,57,327,42.7,309.3,42.7z M309.3,85.3
			c-5.9,0-10.7-4.8-10.7-10.7S303.4,64,309.3,64S320,68.8,320,74.7C320,80.6,315.2,85.3,309.3,85.3z"/>
	</g>
</g>
<g>
	<g>
		
			<rect x="234.3" y="101.4" transform="matrix(0.7071 -0.7071 0.7071 0.7071 0.4408 225.1449)" class="st1" width="75.4" height="21.3"/>
	</g>
</g>
</svg>
