<?xml version="1.0" encoding="utf-8"?>
<!-- Generator: Adobe Illustrator 23.0.2, SVG Export Plug-In . SVG Version: 6.00 Build 0)  -->
<svg version="1.1" id="Capa_1" xmlns="http://www.w3.org/2000/svg" xmlns:xlink="http://www.w3.org/1999/xlink" x="0px" y="0px"
	 viewBox="0 0 143.2 143.2" style="enable-background:new 0 0 143.2 143.2;" xml:space="preserve">
<style type="text/css">
	.st0{fill:#191919;}
	.st1{fill:#39B54A;}
</style>
<path class="st0" d="M84.3,87.6v4c0,1.2,1,2.2,2.2,2.2c1.2,0,2.2-1,2.2-2.2v-4h3.8c1.2,0,2.2-1,2.2-2.2s-1-2.2-2.2-2.2h-3.8v-3.5
	c0-1.2-1-2.2-2.2-2.2c-1.2,0-2.2,1-2.2,2.2v3.5h-3.8c-1.2,0-2.2,1-2.2,2.2s1,2.2,2.2,2.2H84.3z"/>
<path class="st1" d="M56.8,105.6c0.9-0.6,1.9-1.4,2.6-2.2c0.7-0.7,1.3-1.6,1.9-2.4l-0.1-0.3c2.8-3.6,4.8-7.7,5.9-12.3
	c1.6,9.3,9.6,16.4,19.3,16.4c10.8,0,19.6-8.8,19.6-19.6c0-10.8-8.8-19.6-19.6-19.6c-8.7,0-16,5.7-18.6,13.6
	c-0.4-4.1-2.1-9.3-4.3-14.8c0,0-0.1,0-0.1-0.1c-0.6-1-1-2-1.4-3.1c-0.4-1.1-0.7-2.3-1.3-3.3h0c0,0,0-0.1-0.1-0.1c0,0,0,0,0,0
	c0,0,0,0,0-0.1C53,41.3,42.2,24.2,41.5,23.1C41,22.2,40,21.7,39,21.7c-0.9,0.1-2,0.5-2.5,1.3C35.3,24.7,8.8,64.5,8.6,80.8
	c-0.2,17.2,13,31.4,29.4,31.6h0.3c7,0,13.4-2.7,18.5-7L56.8,105.6z M86.4,71.7c7.5,0,13.6,6.1,13.6,13.6c0,7.5-6.1,13.6-13.6,13.6
	c-7.5,0-13.6-6.1-13.6-13.6C72.8,77.8,78.9,71.7,86.4,71.7z M41,106.1l0.1-6.5l11.9-9.3c1.3-1,1.5-2.9,0.5-4.3
	c-1-1.3-2.9-1.5-4.3-0.5l-8.1,6.3l0.1-8l11.9-9.3c1.3-1,1.6-2.9,0.5-4.2c-1-1.3-2.9-1.6-4.3-0.5l-8.1,6.3l0.1-11.7
	c0-1.7-1.3-3-3-3.1c-2,0-3,1.3-3.1,3l-0.1,12.1l-7.9-6.9c-1.3-1.1-3.2-1-4.3,0.3c-1.1,1.3-1,3.2,0.3,4.3l11.8,10.3l-0.1,7.8
	l-7.9-6.9c-1.3-1.1-3.2-1-4.3,0.3c-1.1,1.3-1,3.2,0.3,4.3L35,100.2L35,106c-11.6-1.7-20.5-12.3-20.3-25.1
	c0.1-10.8,15.7-37.3,24.3-50.6C47.1,43.8,62.1,70.6,62,81.5C61.8,94.2,52.7,104.6,41,106.1z"/>
<path class="st0" d="M134.9,42.4c5.1-7,3.5-16.7-3.4-21.8c-3.4-2.4-7.5-3.4-11.6-2.8c-4.1,0.6-7.7,2.9-10.2,6.2
	c-3.1,4.3-3.8,10-1.9,14.9l-15.5,19h-31c0.4,0.7,0.6,1.5,0.9,2.3c0.4,1.3,0.9,2.6,1.6,3.8H126l-20.1,42.3H63.8l-2.2-4.7
	c-0.6,0.8-1.3,1.7-2,2.4c-0.8,0.7-1.7,1.4-2.5,2l2.1,4.5c0.5,1.1,1.6,1.7,2.7,1.7h46c1.2,0,2.2-0.7,2.7-1.7l23-48.4
	c0.5-0.9,0.4-2-0.2-2.9c-0.6-0.9-1.5-1.4-2.6-1.4h-15.4l5.9-9.1C126.7,49.1,131.8,46.7,134.9,42.4z M117.3,43.9l-9.1,14h-8.1
	l13.6-16.6c0.8-1,0.9-2.3,0.3-3.4c-1.8-3.3-1.6-7.3,0.6-10.3c1.5-2.1,3.7-3.4,6.2-3.8c2.5-0.4,5.1,0.2,7.1,1.7
	c4.3,3.1,5.2,9.1,2.1,13.4c-2.2,3-5.9,4.5-9.6,3.7C119.2,42.3,118,42.8,117.3,43.9z"/>
</svg>
