<?xml version="1.0" encoding="utf-8"?>
<!-- Generator: Adobe Illustrator 23.0.2, SVG Export Plug-In . SVG Version: 6.00 Build 0)  -->
<svg version="1.1" id="Capa_1" xmlns="http://www.w3.org/2000/svg" xmlns:xlink="http://www.w3.org/1999/xlink" x="0px" y="0px"
	 viewBox="0 0 512 512" style="enable-background:new 0 0 512 512;" xml:space="preserve">
<style type="text/css">
	.st0{fill:#39B54A;}
	.st1{fill:#191919;}
</style>
<g>
	<g>
		<path class="st0" d="M503.5,196.6L268.8,25.9c-8.5-6.4-17.1-6.4-25.6,0L8.6,196.6C-8.5,207.2,2.2,235,21.4,235h21.3v234.7
			c0,12.8,8.5,21.3,21.3,21.3h384c12.8,0,21.3-8.5,21.3-21.3V235h21.3C509.9,235,520.6,207.2,503.5,196.6z M426.7,213.6v234.7H85.4
			V213.6c0-6.4-2.1-10.7-6.4-14.9L256,70.7l177.1,128C428.8,203,426.7,207.2,426.7,213.6z"/>
	</g>
</g>
<path class="st0" d="M242.6,318v25.7c0,7.6,6.2,13.8,13.8,13.8c7.7,0,13.8-6.2,13.8-13.8V318h24.2c7.6,0,13.8-6.2,13.8-13.8
	c0-7.6-6.2-13.8-13.8-13.8h-24.2v-22.5c0-7.6-6.2-13.8-13.8-13.8c-7.6,0-13.8,6.2-13.8,13.8v22.5h-24.1c-7.6,0-13.8,6.2-13.8,13.8
	c0,7.6,6.2,13.8,13.8,13.8H242.6z"/>
<g>
	<path class="st1" d="M256,424.6c-65.5,0-118.8-53.3-118.8-118.8c0-65.5,53.3-118.8,118.8-118.8c65.5,0,118.8,53.3,118.8,118.8
		C374.8,371.3,321.5,424.6,256,424.6z M256,210.1c-52.8,0-95.8,43-95.8,95.8s43,95.8,95.8,95.8s95.8-43,95.8-95.8
		S308.8,210.1,256,210.1z"/>
</g>
</svg>
