<?xml version="1.0" encoding="utf-8"?>
<!-- Generator: Adobe Illustrator 23.0.2, SVG Export Plug-In . SVG Version: 6.00 Build 0)  -->
<svg version="1.1" id="Layer_1" xmlns="http://www.w3.org/2000/svg" xmlns:xlink="http://www.w3.org/1999/xlink" x="0px" y="0px"
	 viewBox="0 0 200 78" style="enable-background:new 0 0 200 78;" xml:space="preserve">
<style type="text/css">
	.st0{clip-path:url(#SVGID_2_);fill:#009245;}
	.st1{clip-path:url(#SVGID_2_);fill:#009246;}
	.st2{clip-path:url(#SVGID_2_);fill:#009147;}
	.st3{clip-path:url(#SVGID_2_);fill:#009148;}
	.st4{clip-path:url(#SVGID_2_);fill:#009149;}
	.st5{clip-path:url(#SVGID_2_);fill:#00914A;}
	.st6{clip-path:url(#SVGID_2_);fill:#00904B;}
	.st7{clip-path:url(#SVGID_2_);fill:#00904C;}
	.st8{clip-path:url(#SVGID_2_);fill:#00904D;}
	.st9{clip-path:url(#SVGID_2_);fill:#008F4E;}
	.st10{clip-path:url(#SVGID_2_);fill:#008F4F;}
	.st11{clip-path:url(#SVGID_2_);fill:#008F50;}
	.st12{clip-path:url(#SVGID_2_);fill:#008F51;}
	.st13{clip-path:url(#SVGID_2_);fill:#008E52;}
	.st14{clip-path:url(#SVGID_2_);fill:#008E53;}
	.st15{clip-path:url(#SVGID_2_);fill:#008E54;}
	.st16{clip-path:url(#SVGID_2_);fill:#008E55;}
	.st17{clip-path:url(#SVGID_2_);fill:#008D56;}
	.st18{clip-path:url(#SVGID_2_);fill:#008D57;}
	.st19{clip-path:url(#SVGID_2_);fill:#008D58;}
	.st20{clip-path:url(#SVGID_2_);fill:#008C59;}
	.st21{clip-path:url(#SVGID_2_);fill:#008C5A;}
	.st22{clip-path:url(#SVGID_2_);fill:#008C5B;}
	.st23{clip-path:url(#SVGID_2_);fill:#008C5C;}
	.st24{clip-path:url(#SVGID_2_);fill:#008B5D;}
	.st25{clip-path:url(#SVGID_2_);fill:#008B5E;}
	.st26{clip-path:url(#SVGID_2_);fill:#008B5F;}
	.st27{clip-path:url(#SVGID_2_);fill:#008A60;}
	.st28{clip-path:url(#SVGID_2_);fill:#008A61;}
	.st29{clip-path:url(#SVGID_2_);fill:#008A62;}
	.st30{clip-path:url(#SVGID_2_);fill:#008A63;}
	.st31{clip-path:url(#SVGID_2_);fill:#008964;}
	.st32{clip-path:url(#SVGID_2_);fill:#008965;}
	.st33{clip-path:url(#SVGID_2_);fill:#008966;}
	.st34{clip-path:url(#SVGID_2_);fill:#008867;}
	.st35{clip-path:url(#SVGID_2_);fill:#008868;}
	.st36{clip-path:url(#SVGID_2_);fill:#008869;}
	.st37{clip-path:url(#SVGID_2_);fill:#00886A;}
	.st38{clip-path:url(#SVGID_2_);fill:#00876B;}
	.st39{clip-path:url(#SVGID_2_);fill:#00876C;}
	.st40{clip-path:url(#SVGID_2_);fill:#00876D;}
	.st41{clip-path:url(#SVGID_2_);fill:#00876E;}
	.st42{clip-path:url(#SVGID_2_);fill:#00866F;}
	.st43{clip-path:url(#SVGID_2_);fill:#008670;}
	.st44{clip-path:url(#SVGID_2_);fill:#008671;}
	.st45{clip-path:url(#SVGID_2_);fill:#008572;}
	.st46{clip-path:url(#SVGID_2_);fill:#008573;}
	.st47{clip-path:url(#SVGID_2_);fill:#008574;}
	.st48{clip-path:url(#SVGID_2_);fill:#008575;}
	.st49{clip-path:url(#SVGID_2_);fill:#008476;}
	.st50{clip-path:url(#SVGID_2_);fill:#008477;}
	.st51{clip-path:url(#SVGID_2_);fill:#008478;}
	.st52{clip-path:url(#SVGID_2_);fill:#008379;}
	.st53{clip-path:url(#SVGID_2_);fill:#00837A;}
	.st54{clip-path:url(#SVGID_2_);fill:#00837B;}
	.st55{clip-path:url(#SVGID_2_);fill:#00837C;}
	.st56{clip-path:url(#SVGID_2_);fill:#00827D;}
	.st57{clip-path:url(#SVGID_2_);fill:#00827E;}
	.st58{clip-path:url(#SVGID_2_);fill:#00827F;}
	.st59{clip-path:url(#SVGID_2_);fill:#008281;}
	.st60{clip-path:url(#SVGID_2_);fill:#008182;}
	.st61{clip-path:url(#SVGID_2_);fill:#008183;}
	.st62{clip-path:url(#SVGID_2_);fill:#008184;}
	.st63{clip-path:url(#SVGID_2_);fill:#008085;}
	.st64{clip-path:url(#SVGID_2_);fill:#008086;}
	.st65{clip-path:url(#SVGID_2_);fill:#008087;}
	.st66{clip-path:url(#SVGID_2_);fill:#008088;}
	.st67{clip-path:url(#SVGID_2_);fill:#007F89;}
	.st68{clip-path:url(#SVGID_2_);fill:#007F8A;}
	.st69{clip-path:url(#SVGID_2_);fill:#007F8B;}
	.st70{clip-path:url(#SVGID_2_);fill:#007E8C;}
	.st71{clip-path:url(#SVGID_2_);fill:#007E8D;}
	.st72{clip-path:url(#SVGID_2_);fill:#007E8E;}
	.st73{clip-path:url(#SVGID_2_);fill:#007E8F;}
	.st74{clip-path:url(#SVGID_2_);fill:#007D90;}
	.st75{clip-path:url(#SVGID_2_);fill:#007D91;}
	.st76{clip-path:url(#SVGID_2_);fill:#007D92;}
	.st77{clip-path:url(#SVGID_2_);fill:#007C93;}
	.st78{clip-path:url(#SVGID_2_);fill:#007C94;}
	.st79{clip-path:url(#SVGID_2_);fill:#007C95;}
	.st80{clip-path:url(#SVGID_2_);fill:#007C96;}
	.st81{clip-path:url(#SVGID_2_);fill:#007B97;}
	.st82{clip-path:url(#SVGID_2_);fill:#007B98;}
	.st83{clip-path:url(#SVGID_2_);fill:#007B99;}
	.st84{clip-path:url(#SVGID_2_);fill:#007B9A;}
	.st85{clip-path:url(#SVGID_2_);fill:#007A9B;}
	.st86{clip-path:url(#SVGID_2_);fill:#007A9C;}
	.st87{clip-path:url(#SVGID_2_);fill:#007A9D;}
	.st88{clip-path:url(#SVGID_2_);fill:#00799E;}
	.st89{clip-path:url(#SVGID_2_);fill:#00799F;}
	.st90{clip-path:url(#SVGID_2_);fill:#0079A0;}
	.st91{clip-path:url(#SVGID_2_);fill:#0079A1;}
	.st92{clip-path:url(#SVGID_2_);fill:#0078A2;}
	.st93{clip-path:url(#SVGID_2_);fill:#0078A3;}
	.st94{clip-path:url(#SVGID_2_);fill:#0078A4;}
	.st95{clip-path:url(#SVGID_2_);fill:#0077A5;}
	.st96{clip-path:url(#SVGID_2_);fill:#0077A6;}
	.st97{clip-path:url(#SVGID_2_);fill:#0077A7;}
	.st98{clip-path:url(#SVGID_2_);fill:#0077A8;}
	.st99{clip-path:url(#SVGID_2_);fill:#0076A9;}
	.st100{clip-path:url(#SVGID_2_);fill:#0076AA;}
	.st101{clip-path:url(#SVGID_2_);fill:#0076AB;}
	.st102{clip-path:url(#SVGID_2_);fill:#0075AC;}
	.st103{clip-path:url(#SVGID_2_);fill:#0075AD;}
	.st104{clip-path:url(#SVGID_2_);fill:#0075AE;}
	.st105{clip-path:url(#SVGID_2_);fill:#0075AF;}
	.st106{clip-path:url(#SVGID_2_);fill:#0074B0;}
	.st107{clip-path:url(#SVGID_2_);fill:#0074B1;}
	.st108{clip-path:url(#SVGID_2_);fill:#0074B2;}
	.st109{clip-path:url(#SVGID_2_);fill:#0074B3;}
	.st110{clip-path:url(#SVGID_2_);fill:#0073B4;}
	.st111{clip-path:url(#SVGID_2_);fill:#0073B5;}
	.st112{clip-path:url(#SVGID_2_);fill:#0073B6;}
	.st113{clip-path:url(#SVGID_2_);fill:#0072B7;}
	.st114{clip-path:url(#SVGID_2_);fill:#0072B8;}
	.st115{clip-path:url(#SVGID_2_);fill:#0072B9;}
	.st116{clip-path:url(#SVGID_2_);fill:#0072BA;}
	.st117{clip-path:url(#SVGID_2_);fill:#0071BB;}
	.st118{clip-path:url(#SVGID_2_);fill:#0071BC;}
	.st119{fill:#39B54A;}
	.st120{fill:#FFFFFF;}
</style>
<g>
	<g>
		<g>
			<defs>
				<polygon id="SVGID_1_" points="193.9,69.1 124.2,69.1 129.4,49.2 198,49.2 				"/>
			</defs>
			<clipPath id="SVGID_2_">
				<use xlink:href="#SVGID_1_"  style="overflow:visible;"/>
			</clipPath>
			<rect x="124.2" y="49.2" class="st0" width="2.3" height="19.9"/>
			<rect x="126.5" y="49.2" class="st0" width="0.6" height="19.9"/>
			<rect x="127.1" y="49.2" class="st1" width="0.6" height="19.9"/>
			<rect x="127.7" y="49.2" class="st2" width="0.6" height="19.9"/>
			<rect x="128.3" y="49.2" class="st3" width="0.6" height="19.9"/>
			<rect x="128.9" y="49.2" class="st4" width="0.6" height="19.9"/>
			<rect x="129.5" y="49.2" class="st5" width="0.6" height="19.9"/>
			<rect x="130.1" y="49.2" class="st6" width="0.6" height="19.9"/>
			<rect x="130.7" y="49.2" class="st7" width="0.6" height="19.9"/>
			<rect x="131.3" y="49.2" class="st8" width="0.6" height="19.9"/>
			<rect x="131.9" y="49.2" class="st9" width="0.6" height="19.9"/>
			<rect x="132.5" y="49.2" class="st10" width="0.6" height="19.9"/>
			<rect x="133.1" y="49.2" class="st11" width="0.6" height="19.9"/>
			<rect x="133.7" y="49.2" class="st12" width="0.6" height="19.9"/>
			<rect x="134.3" y="49.2" class="st13" width="0.6" height="19.9"/>
			<rect x="134.9" y="49.2" class="st14" width="0.6" height="19.9"/>
			<rect x="135.5" y="49.2" class="st15" width="0.6" height="19.9"/>
			<rect x="136.1" y="49.2" class="st16" width="0.6" height="19.9"/>
			<rect x="136.7" y="49.2" class="st17" width="0.6" height="19.9"/>
			<rect x="137.3" y="49.2" class="st18" width="0.6" height="19.9"/>
			<rect x="137.9" y="49.2" class="st19" width="0.6" height="19.9"/>
			<rect x="138.5" y="49.2" class="st20" width="0.6" height="19.9"/>
			<rect x="139.1" y="49.2" class="st21" width="0.6" height="19.9"/>
			<rect x="139.7" y="49.2" class="st22" width="0.6" height="19.9"/>
			<rect x="140.3" y="49.2" class="st23" width="0.6" height="19.9"/>
			<rect x="140.9" y="49.2" class="st24" width="0.6" height="19.9"/>
			<rect x="141.5" y="49.2" class="st25" width="0.6" height="19.9"/>
			<rect x="142.1" y="49.2" class="st26" width="0.6" height="19.9"/>
			<rect x="142.7" y="49.2" class="st27" width="0.6" height="19.9"/>
			<rect x="143.3" y="49.2" class="st28" width="0.6" height="19.9"/>
			<rect x="143.9" y="49.2" class="st29" width="0.6" height="19.9"/>
			<rect x="144.5" y="49.2" class="st30" width="0.6" height="19.9"/>
			<rect x="145.1" y="49.2" class="st31" width="0.6" height="19.9"/>
			<rect x="145.7" y="49.2" class="st32" width="0.6" height="19.9"/>
			<rect x="146.3" y="49.2" class="st33" width="0.6" height="19.9"/>
			<rect x="146.9" y="49.2" class="st34" width="0.6" height="19.9"/>
			<rect x="147.5" y="49.2" class="st35" width="0.6" height="19.9"/>
			<rect x="148.1" y="49.2" class="st36" width="0.6" height="19.9"/>
			<rect x="148.7" y="49.2" class="st37" width="0.6" height="19.9"/>
			<rect x="149.3" y="49.2" class="st38" width="0.6" height="19.9"/>
			<rect x="149.9" y="49.2" class="st39" width="0.6" height="19.9"/>
			<rect x="150.5" y="49.2" class="st40" width="0.6" height="19.9"/>
			<rect x="151.1" y="49.2" class="st41" width="0.6" height="19.9"/>
			<rect x="151.7" y="49.2" class="st42" width="0.6" height="19.9"/>
			<rect x="152.3" y="49.2" class="st43" width="0.6" height="19.9"/>
			<rect x="152.9" y="49.2" class="st44" width="0.6" height="19.9"/>
			<rect x="153.5" y="49.2" class="st45" width="0.6" height="19.9"/>
			<rect x="154.1" y="49.2" class="st46" width="0.6" height="19.9"/>
			<rect x="154.7" y="49.2" class="st47" width="0.6" height="19.9"/>
			<rect x="155.3" y="49.2" class="st48" width="0.6" height="19.9"/>
			<rect x="155.9" y="49.2" class="st49" width="0.6" height="19.9"/>
			<rect x="156.5" y="49.2" class="st50" width="0.6" height="19.9"/>
			<rect x="157.1" y="49.2" class="st51" width="0.6" height="19.9"/>
			<rect x="157.7" y="49.2" class="st52" width="0.6" height="19.9"/>
			<rect x="158.3" y="49.2" class="st53" width="0.6" height="19.9"/>
			<rect x="158.9" y="49.2" class="st54" width="0.6" height="19.9"/>
			<rect x="159.5" y="49.2" class="st55" width="0.6" height="19.9"/>
			<rect x="160.1" y="49.2" class="st56" width="0.6" height="19.9"/>
			<rect x="160.7" y="49.2" class="st57" width="0.6" height="19.9"/>
			<rect x="161.3" y="49.2" class="st58" width="0.6" height="19.9"/>
			<rect x="161.9" y="49.2" class="st59" width="0.6" height="19.9"/>
			<rect x="162.5" y="49.2" class="st60" width="0.6" height="19.9"/>
			<rect x="163.1" y="49.2" class="st61" width="0.6" height="19.9"/>
			<rect x="163.7" y="49.2" class="st62" width="0.6" height="19.9"/>
			<rect x="164.3" y="49.2" class="st63" width="0.6" height="19.9"/>
			<rect x="164.9" y="49.2" class="st64" width="0.6" height="19.9"/>
			<rect x="165.5" y="49.2" class="st65" width="0.6" height="19.9"/>
			<rect x="166.1" y="49.2" class="st66" width="0.6" height="19.9"/>
			<rect x="166.7" y="49.2" class="st67" width="0.6" height="19.9"/>
			<rect x="167.3" y="49.2" class="st68" width="0.6" height="19.9"/>
			<rect x="167.9" y="49.2" class="st69" width="0.6" height="19.9"/>
			<rect x="168.5" y="49.2" class="st70" width="0.6" height="19.9"/>
			<rect x="169.2" y="49.2" class="st71" width="0.6" height="19.9"/>
			<rect x="169.8" y="49.2" class="st72" width="0.6" height="19.9"/>
			<rect x="170.4" y="49.2" class="st73" width="0.6" height="19.9"/>
			<rect x="171" y="49.2" class="st74" width="0.6" height="19.9"/>
			<rect x="171.6" y="49.2" class="st75" width="0.6" height="19.9"/>
			<rect x="172.2" y="49.2" class="st76" width="0.6" height="19.9"/>
			<rect x="172.8" y="49.2" class="st77" width="0.6" height="19.9"/>
			<rect x="173.4" y="49.2" class="st78" width="0.6" height="19.9"/>
			<rect x="174" y="49.2" class="st79" width="0.6" height="19.9"/>
			<rect x="174.6" y="49.2" class="st80" width="0.6" height="19.9"/>
			<rect x="175.2" y="49.2" class="st81" width="0.6" height="19.9"/>
			<rect x="175.8" y="49.2" class="st82" width="0.6" height="19.9"/>
			<rect x="176.4" y="49.2" class="st83" width="0.6" height="19.9"/>
			<rect x="177" y="49.2" class="st84" width="0.6" height="19.9"/>
			<rect x="177.6" y="49.2" class="st85" width="0.6" height="19.9"/>
			<rect x="178.2" y="49.2" class="st86" width="0.6" height="19.9"/>
			<rect x="178.8" y="49.2" class="st87" width="0.6" height="19.9"/>
			<rect x="179.4" y="49.2" class="st88" width="0.6" height="19.9"/>
			<rect x="180" y="49.2" class="st89" width="0.6" height="19.9"/>
			<rect x="180.6" y="49.2" class="st90" width="0.6" height="19.9"/>
			<rect x="181.2" y="49.2" class="st91" width="0.6" height="19.9"/>
			<rect x="181.8" y="49.2" class="st92" width="0.6" height="19.9"/>
			<rect x="182.4" y="49.2" class="st93" width="0.6" height="19.9"/>
			<rect x="183" y="49.2" class="st94" width="0.6" height="19.9"/>
			<rect x="183.6" y="49.2" class="st95" width="0.6" height="19.9"/>
			<rect x="184.2" y="49.2" class="st96" width="0.6" height="19.9"/>
			<rect x="184.8" y="49.2" class="st97" width="0.6" height="19.9"/>
			<rect x="185.4" y="49.2" class="st98" width="0.6" height="19.9"/>
			<rect x="186" y="49.2" class="st99" width="0.6" height="19.9"/>
			<rect x="186.6" y="49.2" class="st100" width="0.6" height="19.9"/>
			<rect x="187.2" y="49.2" class="st101" width="0.6" height="19.9"/>
			<rect x="187.8" y="49.2" class="st102" width="0.6" height="19.9"/>
			<rect x="188.4" y="49.2" class="st103" width="0.6" height="19.9"/>
			<rect x="189" y="49.2" class="st104" width="0.6" height="19.9"/>
			<rect x="189.6" y="49.2" class="st105" width="0.6" height="19.9"/>
			<rect x="190.2" y="49.2" class="st106" width="0.6" height="19.9"/>
			<rect x="190.8" y="49.2" class="st107" width="0.6" height="19.9"/>
			<rect x="191.4" y="49.2" class="st108" width="0.6" height="19.9"/>
			<rect x="192" y="49.2" class="st109" width="0.6" height="19.9"/>
			<rect x="192.6" y="49.2" class="st110" width="0.6" height="19.9"/>
			<rect x="193.2" y="49.2" class="st111" width="0.6" height="19.9"/>
			<rect x="193.8" y="49.2" class="st112" width="0.6" height="19.9"/>
			<rect x="194.4" y="49.2" class="st113" width="0.6" height="19.9"/>
			<rect x="195" y="49.2" class="st114" width="0.6" height="19.9"/>
			<rect x="195.6" y="49.2" class="st115" width="0.6" height="19.9"/>
			<rect x="196.2" y="49.2" class="st116" width="0.6" height="19.9"/>
			<rect x="196.8" y="49.2" class="st117" width="0.6" height="19.9"/>
			<rect x="197.4" y="49.2" class="st118" width="0.6" height="19.9"/>
			<path class="st118" d="M198,69.1V49.2V69.1z"/>
		</g>
	</g>
	<g>
		<g>
			<path class="st119" d="M0.9,10.4c2.3-0.4,5.5-0.7,9.7-0.7c4.6,0,8,1,10.3,2.8c2.1,1.7,3.4,4.4,3.4,7.7c0,3.3-1,6-3,7.9
				c-2.6,2.5-6.5,3.7-11,3.7c-1.2,0-2.3-0.1-3.1-0.2v13.1H0.9V10.4z M7.2,26.6c0.8,0.2,1.8,0.3,3.1,0.3c4.8,0,7.7-2.4,7.7-6.4
				c0-3.8-2.7-5.9-7.1-5.9c-1.7,0-3,0.2-3.7,0.3V26.6z"/>
		</g>
		<g>
			<path class="st119" d="M36.2,9.9v13.9h14.7V9.9h6.4v34.8h-6.4V29.4H36.2v15.4h-6.4V9.9H36.2z"/>
		</g>
		<g>
			<path class="st119" d="M71.5,34.9l-3,9.8h-6.6L73.1,9.9h8.1l11.3,34.8h-6.8l-3.2-9.8H71.5z M81.5,30.1l-2.7-8.6
				C78.1,19.3,77.5,17,77,15h-0.1c-0.5,2-1,4.5-1.7,6.5l-2.7,8.6H81.5z"/>
		</g>
		<g>
			<path class="st119" d="M97.4,10.4c2.4-0.4,6-0.7,9.6-0.7c5,0,8.4,0.8,10.7,2.8c1.9,1.6,3,4,3,7c0,4.5-3,7.5-6.3,8.7v0.1
				c2.5,1,4,3.4,4.9,6.7c1.1,4.4,2.1,8.4,2.7,9.7h-6.5c-0.5-1-1.4-3.9-2.3-8.2c-1-4.5-2.7-6-6.3-6.1h-3.2v14.3h-6.3V10.4z
				 M103.7,25.8h3.8c4.3,0,7-2.3,7-5.7c0-3.8-2.7-5.6-6.8-5.6c-2,0-3.3,0.2-4,0.3V25.8z"/>
		</g>
		<g>
			<path class="st119" d="M156.2,30.5c-0.2-4.5-0.4-9.9-0.4-14.6h-0.1c-1.2,4.3-2.6,9-4.1,13.4l-5.1,15.1h-4.9l-4.6-14.9
				c-1.4-4.5-2.6-9.2-3.5-13.6h-0.1c-0.1,4.6-0.4,10.1-0.6,14.9l-0.8,14h-5.9l2.3-34.8h8.4l4.5,14c1.3,4.1,2.4,8.2,3.2,12.1h0.2
				c0.9-3.8,2.1-8.1,3.5-12.2l4.8-14h8.3l2,34.8h-6.2L156.2,30.5z"/>
		</g>
		<g>
			<path class="st119" d="M176.1,34.9l-3,9.8h-6.6l11.2-34.8h8.1l11.3,34.8h-6.8l-3.2-9.8H176.1z M186.1,30.1l-2.7-8.6
				c-0.7-2.2-1.2-4.5-1.8-6.5h-0.1c-0.5,2-1,4.5-1.7,6.5l-2.7,8.6H186.1z"/>
		</g>
	</g>
	<g>
		<path class="st120" d="M5.6,50.2v17.7H2.4V50.2H5.6z"/>
	</g>
	<g>
		<path class="st120" d="M12.7,52.9H7.7v-2.7h13.4v2.7H16v15h-3.2V52.9z"/>
	</g>
	<g>
		<path class="st120" d="M28.5,64.4c1,0.6,2.6,1.1,4.3,1.1c2.1,0,3.2-1,3.2-2.4c0-1.3-0.9-2.1-3.1-2.9c-2.9-1-4.8-2.6-4.8-5.2
			c0-2.9,2.4-5.1,6.3-5.1c1.9,0,3.3,0.4,4.3,0.9l-0.8,2.6c-0.6-0.3-1.9-0.8-3.5-0.8c-2.1,0-2.9,1.1-2.9,2.1c0,1.4,1,2,3.4,2.9
			c3.1,1.2,4.6,2.7,4.6,5.3c0,2.9-2.2,5.3-6.7,5.3c-1.9,0-3.8-0.5-4.8-1.1L28.5,64.4z"/>
	</g>
	<g>
		<path class="st120" d="M45.5,50.2v10.3c0,3.5,1.4,5.1,3.6,5.1c2.3,0,3.7-1.6,3.7-5.1V50.2h3.2v10.1c0,5.5-2.8,7.9-7.1,7.9
			c-4.1,0-6.8-2.3-6.8-7.9V50.2H45.5z"/>
	</g>
	<g>
		<path class="st120" d="M74.8,60.7c-0.1-2.3-0.2-5-0.2-7.5h-0.1c-0.6,2.2-1.3,4.6-2.1,6.8l-2.6,7.7h-2.5l-2.4-7.6
			c-0.7-2.3-1.3-4.7-1.8-6.9h-0.1c-0.1,2.3-0.2,5.2-0.3,7.6l-0.4,7.1h-3l1.2-17.7h4.3l2.3,7.1c0.6,2.1,1.2,4.2,1.6,6.2h0.1
			c0.5-1.9,1.1-4.1,1.8-6.2l2.5-7.1h4.2l1,17.7h-3.2L74.8,60.7z"/>
	</g>
	<g>
		<path class="st120" d="M96.5,60.7c-0.1-2.3-0.2-5-0.2-7.5h-0.1c-0.6,2.2-1.3,4.6-2.1,6.8l-2.6,7.7h-2.5l-2.4-7.6
			c-0.7-2.3-1.3-4.7-1.8-6.9h-0.1c-0.1,2.3-0.2,5.2-0.3,7.6l-0.4,7.1h-3l1.2-17.7h4.3l2.3,7.1c0.6,2.1,1.2,4.2,1.6,6.2h0.1
			c0.5-1.9,1.1-4.1,1.8-6.2l2.5-7.1H99l1,17.7h-3.2L96.5,60.7z"/>
	</g>
	<g>
		<path class="st120" d="M106.6,50.2v17.7h-3.2V50.2H106.6z"/>
	</g>
	<g>
		<path class="st120" d="M113.7,52.9h-5.1v-2.7H122v2.7h-5.1v15h-3.2V52.9z"/>
	</g>
	<g>
		<path class="st120" d="M145.8,62.2h-1.9l-1,4.3h-3.1l3.5-15.1h4.3c1.6,0,2.8,0.3,3.6,1s1.1,1.8,1.1,3.2c0,2.1-0.6,3.7-1.7,4.8
			C149.4,61.7,147.8,62.2,145.8,62.2z M146.2,59.6c0.9,0,1.7-0.3,2.2-1c0.5-0.7,0.8-1.6,0.8-2.8c0-0.6-0.1-1-0.4-1.2
			s-0.7-0.4-1.3-0.4h-1.7l-1.2,5.4H146.2z"/>
		<path class="st120" d="M152,66.6l3.5-15.1h3.1L155,66.6H152z"/>
		<path class="st120" d="M159.5,54.2l0.6-2.7h9.7l-0.6,2.7h-3.3L163,66.6H160l2.9-12.4H159.5z"/>
		<path class="st120" d="M175,53.9c-0.7,0-1.2,0.2-1.5,0.5c-0.4,0.4-0.6,0.8-0.6,1.3s0.1,0.9,0.4,1.1c0.2,0.2,0.9,0.6,1.9,1.1
			c1.1,0.5,1.8,1,2.2,1.5c0.4,0.5,0.6,1.3,0.6,2.3c0,1.7-0.5,3-1.5,3.9c-1,0.9-2.4,1.4-4.2,1.4c-0.7,0-1.4-0.1-2.2-0.2
			s-1.4-0.3-1.8-0.4l-0.6-0.2l0.5-2.2c1.7,0.3,3,0.4,3.9,0.4c1,0,1.6-0.2,2.1-0.5c0.4-0.3,0.7-0.9,0.7-1.7c0-0.4-0.1-0.8-0.4-1
			c-0.3-0.2-0.9-0.6-1.9-1c-1-0.5-1.7-1-2.1-1.5c-0.4-0.5-0.6-1.3-0.6-2.3c0-1.4,0.5-2.6,1.4-3.5s2.2-1.4,3.7-1.4
			c0.7,0,1.5,0.1,2.2,0.2c0.8,0.1,1.4,0.3,1.8,0.4l0.6,0.2l-0.6,2.2C177.4,54,176,53.9,175,53.9z"/>
	</g>
</g>
</svg>
