<?xml version="1.0" encoding="utf-8"?>
<!-- Generator: Adobe Illustrator 23.0.2, SVG Export Plug-In . SVG Version: 6.00 Build 0)  -->
<svg version="1.1" id="Layer_1" xmlns="http://www.w3.org/2000/svg" xmlns:xlink="http://www.w3.org/1999/xlink" x="0px" y="0px"
	 viewBox="0 0 612 198.93" style="enable-background:new 0 0 612 198.93;" xml:space="preserve">
<style type="text/css">
	.st0{fill:#2A712F;}
	.st1{fill:#FFFFFF;}
</style>
<g id="Layer_1-2">
	<rect x="17.13" y="135.34" class="st0" width="577.69" height="50.41"/>
	<path class="st1" d="M32.58,112.28V35.88H49.4v29.75h29.97V35.88h16.85v76.41H79.37v-32.6H49.4v32.6H32.58z"/>
	<path class="st1" d="M111.94,112.28V35.88h28.72c4.23-0.04,8.45,0.4,12.57,1.31c3.4,0.74,6.61,2.16,9.45,4.16
		c2.58,1.91,4.63,4.45,5.95,7.37c1.45,3.38,2.15,7.03,2.06,10.71c0,6.18-1.36,11.01-4.09,14.49c-3.06,3.7-7.17,6.38-11.79,7.68
		l16.93,30.69h-17.73l-15.96-28.47h-9.73v28.47H111.94z M128.37,70.51h11.51c4.88,0,8.49-0.79,10.84-2.36
		c2.33-1.6,3.51-4.32,3.51-8.25s-1.18-6.51-3.51-8.07c-2.33-1.56-5.92-2.33-10.84-2.33h-11.51V70.51z"/>
	<path class="st1" d="M203.71,35.88h16.82l7.98,34.82c0.73,2.82,1.4,5.49,1.98,7.98c0.57,2.49,1.15,5.39,1.69,8.7h0.19
		c0.51-3.19,1.04-6.06,1.6-8.6c0.55-2.54,1.18-5.2,1.88-7.98l7.88-34.92h15.4l8.22,35.2c0.35,1.52,0.67,2.9,0.96,4.21
		s0.59,2.54,0.86,3.75c0.27,1.21,0.57,2.49,0.88,3.85c0.3,1.36,0.59,2.84,0.88,4.5h0.21l0.81-4.6c0.24-1.34,0.51-2.6,0.78-3.8
		c0.27-1.2,0.57-2.39,0.91-3.61c0.34-1.21,0.65-2.6,1.01-4.18l7.98-35.33h15.37l-19.92,76.41h-14.36l-12-53.17h-0.21l-12.94,53.17
		h-14.62L203.71,35.88z"/>
	<path class="st1" d="M301.36,74.13c-0.13-5.99,0.9-11.96,3.05-17.55c1.79-4.64,4.51-8.86,7.98-12.42c3.27-3.25,7.2-5.75,11.52-7.34
		c4.32-1.59,8.89-2.38,13.48-2.35c4.56,0,9.08,0.82,13.34,2.43c4.29,1.61,8.19,4.11,11.44,7.34c3.49,3.54,6.21,7.77,7.98,12.42
		c2.13,5.6,3.16,11.56,3.03,17.55c0.13,5.99-0.9,11.95-3.03,17.55c-1.78,4.61-4.49,8.8-7.98,12.3c-3.26,3.21-7.16,5.7-11.44,7.32
		c-4.26,1.62-8.78,2.45-13.34,2.44c-4.58,0-9.13-0.82-13.42-2.44c-4.31-1.6-8.24-4.1-11.52-7.32c-3.47-3.52-6.18-7.7-7.98-12.3
		C302.29,86.15,301.23,80.15,301.36,74.13z M318.19,74.13c-0.04,3.65,0.41,7.29,1.34,10.82c0.76,2.95,2.05,5.74,3.8,8.23
		c1.57,2.17,3.64,3.93,6.05,5.12c5.06,2.37,10.9,2.37,15.96,0c2.4-1.21,4.46-2.98,6.02-5.17c1.76-2.5,3.05-5.28,3.83-8.23
		c0.95-3.53,1.4-7.17,1.36-10.82c0-7.99-1.72-14.26-5.15-18.8c-6.15-7.76-17.43-9.07-25.2-2.92c-1.08,0.86-2.06,1.84-2.92,2.92
		C319.88,59.85,318.19,66.13,318.19,74.13z"/>
	<path class="st1" d="M457.84,112.28V35.88h16.84v62.79h33.61v13.61H457.84z"/>
	<path class="st1" d="M384.64,112.28V35.88h28.72c4.23-0.04,8.45,0.4,12.57,1.31c3.4,0.74,6.61,2.15,9.45,4.16
		c2.58,1.91,4.63,4.45,5.95,7.37c1.45,3.38,2.15,7.03,2.06,10.71c0,6.18-1.36,11.01-4.09,14.49c-3.05,3.71-7.17,6.38-11.79,7.68
		l16.95,30.69h-17.75l-15.96-28.47h-9.7v28.47H384.64z M401.06,70.51h11.51c4.88,0,8.49-0.79,10.84-2.36
		c2.33-1.6,3.51-4.32,3.51-8.25s-1.18-6.51-3.51-8.07c-2.33-1.56-5.95-2.33-10.84-2.33h-11.51V70.51z"/>
	<path class="st1" d="M518.7,112.28V35.88h23.44c5.48-0.05,10.94,0.62,16.25,1.98c4.73,1.16,9.15,3.33,12.94,6.38
		c3.77,3.15,6.71,7.17,8.57,11.71c2.22,5.62,3.28,11.63,3.11,17.67c0.17,6.19-0.92,12.35-3.19,18.11c-1.88,4.62-4.87,8.72-8.7,11.92
		c-3.8,3.07-8.21,5.3-12.94,6.54c-5.23,1.41-10.62,2.11-16.04,2.09H518.7z M535.33,98.67h7.88c3.59,0.08,7.16-0.41,10.6-1.45
		c2.71-0.85,5.17-2.38,7.13-4.44c1.95-2.19,3.32-4.84,3.99-7.69c0.89-3.66,1.31-7.41,1.24-11.17c0-8.13-1.78-14.15-5.33-18.06
		c-3.55-3.91-9.5-5.89-17.84-5.92h-7.68V98.67z"/>
	<path class="st1" d="M46.45,167.31v-13.77h-4.39v-1.76h10.63v1.76h-4.37v13.77H46.45z"/>
	<path class="st1" d="M56.91,167.31v-15.53h1.84v5.97H67v-5.97h1.88v15.53H67v-7.8h-8.25v7.8H56.91z"/>
	<path class="st1" d="M74.77,167.31v-15.53h8.19v1.69h-6.38v4.45h6.38v1.71h-6.38v5.95h6.38v1.72L74.77,167.31z"/>
	<path class="st1" d="M96.82,167.31v-15.53h1.85v13.77h5.86v1.76H96.82z"/>
	<path class="st1" d="M108.9,167.31v-15.53h8.19v1.69h-6.38v4.45h6.38v1.71h-6.38v5.95h6.38v1.72L108.9,167.31z"/>
	<path class="st1" d="M127.24,151.17l7.07,16.13h-1.96l-2.01-4.79h-6.06l-2.01,4.79h-2.01L127.24,151.17z M127.24,155.24l-2.46,5.71
		h4.93L127.24,155.24z"/>
	<path class="st1" d="M138.12,167.31v-15.53h2.98c1.56-0.05,3.12,0.06,4.66,0.34c0.86,0.2,1.67,0.58,2.38,1.12
		c0.89,0.69,1.58,1.6,2.03,2.63c0.47,1.17,0.7,2.42,0.69,3.69c0.02,1.26-0.21,2.51-0.69,3.67c-0.44,1.04-1.13,1.95-2.03,2.63
		c-0.69,0.53-1.49,0.91-2.33,1.12c-1.33,0.27-2.68,0.38-4.04,0.34H138.12z M140.01,165.57h1.18c1.32,0.05,2.65-0.03,3.96-0.24
		c0.67-0.13,1.29-0.42,1.82-0.85c0.66-0.55,1.16-1.26,1.47-2.06c0.66-1.86,0.66-3.89,0-5.74c-0.31-0.79-0.81-1.5-1.47-2.04
		c-0.54-0.44-1.17-0.74-1.85-0.88c-1.3-0.21-2.62-0.3-3.94-0.26h-1.16V165.57z"/>
	<path class="st1" d="M156.08,167.31v-15.53h1.84v15.53L156.08,167.31z"/>
	<path class="st1" d="M163.83,167.31v-16.13l11.36,12.4v-11.79h1.76v16.13l-11.41-12.27v11.67H163.83z"/>
	<path class="st1" d="M191.37,159.3h6.38v0.51c0.11,2.13-0.64,4.22-2.07,5.79c-1.52,1.46-3.58,2.23-5.68,2.12
		c-0.7,0-1.39-0.08-2.07-0.24c-0.64-0.15-1.25-0.37-1.84-0.67c-1.23-0.67-2.25-1.68-2.94-2.9c-0.72-1.29-1.08-2.74-1.05-4.21
		c-0.02-1.19,0.19-2.38,0.62-3.49c0.44-1.06,1.11-2,1.96-2.76c0.7-0.66,1.52-1.17,2.43-1.5c0.99-0.35,2.03-0.52,3.08-0.51
		c1.34-0.03,2.67,0.24,3.88,0.81c1.11,0.55,2.06,1.4,2.73,2.44l-1.6,1.24c-0.5-0.88-1.22-1.61-2.09-2.12
		c-0.89-0.48-1.89-0.72-2.9-0.7c-1.66-0.06-3.26,0.6-4.39,1.82c-1.16,1.32-1.77,3.03-1.69,4.79c-0.06,1.69,0.56,3.34,1.72,4.56
		c1.13,1.19,2.72,1.84,4.36,1.79c1.43,0.04,2.83-0.47,3.89-1.42c1.05-0.95,1.68-2.28,1.76-3.7h-4.44L191.37,159.3z"/>
	<path class="st1" d="M211.26,167.31v-15.53h1.85v5.97h8.28v-5.97h1.87v15.53h-1.87v-7.8h-8.25v7.8H211.26z"/>
	<path class="st1" d="M229.11,167.31v-15.53h3.64c0.77-0.02,1.54,0.04,2.3,0.18c0.47,0.1,0.9,0.31,1.28,0.61
		c0.47,0.38,0.84,0.87,1.07,1.44c0.26,0.64,0.39,1.32,0.38,2.01c0.08,1.09-0.31,2.16-1.07,2.94c-0.9,0.73-2.04,1.08-3.19,0.99h-0.32
		l5.92,7.4h-2.35l-5.67-7.4h-0.14v7.4L229.11,167.31z M230.97,153.34v5.19h1.4c1,0.11,2.01-0.09,2.9-0.56
		c0.53-0.49,0.8-1.21,0.72-1.93c0.09-0.78-0.19-1.56-0.75-2.11c-0.87-0.49-1.88-0.7-2.87-0.59H230.97z"/>
	<path class="st1" d="M254.2,167.31v-13.77h-4.39v-1.76h10.61v1.76h-4.36v13.77H254.2z"/>
	<path class="st1" d="M264.65,167.31v-15.53h3.65c0.76-0.02,1.53,0.04,2.28,0.18c0.47,0.1,0.9,0.31,1.28,0.61
		c0.48,0.38,0.85,0.87,1.07,1.44c0.26,0.64,0.39,1.32,0.38,2.01c0.08,1.08-0.31,2.13-1.07,2.9c-0.89,0.73-2.04,1.09-3.19,0.99h-0.34
		l5.94,7.4h-2.2l-5.67-7.4h-0.27v7.4L264.65,167.31z M266.46,153.34v5.19h1.42c1,0.1,2-0.09,2.89-0.56
		c0.54-0.49,0.82-1.21,0.73-1.93c0.08-0.78-0.19-1.56-0.75-2.11c-0.88-0.48-1.88-0.69-2.87-0.59H266.46z"/>
	<path class="st1" d="M283.35,151.17l7.07,16.13h-2.01l-2.01-4.79h-6.06l-2.01,4.79h-2.01L283.35,151.17z M283.35,155.24l-2.47,5.71
		h4.95L283.35,155.24z"/>
	<path class="st1" d="M294.19,167.31v-16.13l11.36,12.4v-11.79h1.76v16.13l-11.36-12.27v11.67H294.19z"/>
	<path class="st1" d="M318.85,158.69c0.9,0.35,1.69,0.94,2.28,1.71c0.53,0.74,0.81,1.63,0.8,2.54c0.06,1.29-0.43,2.54-1.36,3.45
		c-1.9,1.59-4.62,1.75-6.69,0.38c-0.85-0.67-1.45-1.62-1.68-2.68l1.68-0.81c0.15,0.81,0.54,1.55,1.12,2.14
		c0.54,0.49,1.24,0.74,1.96,0.72c0.82,0.03,1.62-0.25,2.23-0.8c0.58-0.54,0.89-1.3,0.86-2.09c0.02-0.65-0.19-1.29-0.59-1.8
		c-0.49-0.58-1.11-1.02-1.82-1.29l-1.88-0.81c-0.89-0.32-1.69-0.87-2.3-1.6c-0.52-0.71-0.79-1.57-0.77-2.44
		c-0.02-1.05,0.44-2.05,1.24-2.73c0.89-0.76,2.03-1.15,3.19-1.09c0.85-0.02,1.68,0.18,2.43,0.59c0.69,0.41,1.25,1.02,1.6,1.76
		l-1.6,0.97c-0.28-0.53-0.68-0.99-1.16-1.34c-0.43-0.3-0.94-0.46-1.47-0.45c-0.63-0.03-1.24,0.2-1.69,0.64
		c-0.83,0.82-0.9,2.14-0.16,3.05c0.44,0.48,0.98,0.85,1.6,1.07L318.85,158.69z"/>
	<path class="st1" d="M326.52,167.31v-15.53h8.17v1.69h-6.38v4.45h6.38v1.71h-6.38v7.68H326.52z"/>
	<path class="st1" d="M355.6,159.57c0.01,2.17-0.86,4.25-2.41,5.76c-0.78,0.76-1.7,1.36-2.71,1.77c-3.1,1.27-6.66,0.57-9.05-1.77
		c-0.78-0.74-1.39-1.64-1.8-2.63c-0.43-1.01-0.64-2.1-0.62-3.19c-0.01-2.18,0.86-4.26,2.43-5.78c0.77-0.75,1.69-1.34,2.7-1.74
		c2.05-0.84,4.34-0.84,6.38,0c1.01,0.4,1.93,0.99,2.71,1.74c1.56,1.52,2.43,3.6,2.41,5.78L355.6,159.57z M347.3,165.95
		c0.83,0,1.66-0.16,2.43-0.48c0.78-0.34,1.48-0.82,2.07-1.42c1.21-1.19,1.88-2.82,1.87-4.52c0-0.85-0.17-1.69-0.49-2.47
		c-0.31-0.78-0.78-1.48-1.37-2.07c-0.59-0.59-1.3-1.07-2.07-1.39c-0.77-0.32-1.59-0.48-2.43-0.48c-0.84,0-1.68,0.16-2.46,0.48
		c-0.77,0.32-1.46,0.79-2.04,1.39c-1.2,1.21-1.88,2.84-1.87,4.55c0,0.84,0.15,1.66,0.46,2.44c0.32,0.78,0.8,1.49,1.4,2.07
		c0.59,0.61,1.3,1.09,2.07,1.42c0.77,0.33,1.59,0.51,2.43,0.51L347.3,165.95z"/>
	<path class="st1" d="M360.77,167.31v-15.53h3.65c0.76-0.02,1.53,0.04,2.28,0.18c0.47,0.1,0.9,0.31,1.28,0.61
		c0.48,0.38,0.85,0.87,1.07,1.44c0.26,0.64,0.39,1.32,0.38,2.01c0.09,1.09-0.3,2.16-1.07,2.94c-0.87,0.71-1.99,1.07-3.11,0.99h-0.34
		l5.94,7.4h-2.35l-5.67-7.4h-0.27v7.4L360.77,167.31z M362.57,153.34v5.19h1.42c1,0.1,2-0.09,2.89-0.56
		c0.54-0.49,0.82-1.21,0.73-1.93c0.08-0.78-0.19-1.56-0.75-2.11c-0.88-0.48-1.88-0.69-2.87-0.59H362.57z"/>
	<path class="st1" d="M381.8,167.91l-4.79-11.17l-1.96,10.55h-1.8l3.19-16.13l5.43,12.77l5.43-12.77l3.19,16.13h-1.8l-1.96-10.55
		L381.8,167.91z"/>
	<path class="st1" d="M399.85,151.17l7.05,16.13h-1.99l-2.03-4.79h-6.06l-2.01,4.79h-2.01L399.85,151.17z M399.85,155.24l-2.47,5.71
		h4.93L399.85,155.24z"/>
	<path class="st1" d="M412.2,167.31v-13.77h-4.39v-1.76h10.63v1.76h-4.37v13.77H412.2z"/>
	<path class="st1" d="M422.68,167.31v-15.53h1.85v15.53L422.68,167.31z"/>
	<path class="st1" d="M446.4,159.57c0.02,1.09-0.19,2.18-0.61,3.19c-0.44,0.98-1.07,1.85-1.87,2.57c-0.77,0.76-1.69,1.36-2.7,1.77
		c-1.01,0.41-2.1,0.62-3.19,0.62c-2.19,0-4.29-0.86-5.86-2.39c-1.58-1.5-2.46-3.59-2.43-5.76c-0.04-2.18,0.84-4.28,2.43-5.78
		c0.77-0.75,1.69-1.34,2.7-1.74c2.05-0.84,4.34-0.84,6.38,0c1.01,0.39,1.92,0.98,2.7,1.74c0.78,0.74,1.39,1.64,1.8,2.63
		C446.18,157.42,446.4,158.49,446.4,159.57z M438.1,165.95c0.83,0,1.66-0.16,2.43-0.48c0.78-0.33,1.48-0.81,2.07-1.42
		c0.6-0.58,1.08-1.28,1.4-2.06c0.31-0.78,0.47-1.62,0.46-2.46c0-0.85-0.16-1.69-0.48-2.47c-0.31-0.78-0.79-1.49-1.39-2.07
		c-1.82-1.82-4.56-2.37-6.94-1.39c-0.77,0.32-1.47,0.79-2.06,1.39c-1.8,1.85-2.34,4.59-1.39,6.99c0.32,0.78,0.79,1.48,1.39,2.07
		c0.6,0.6,1.31,1.08,2.09,1.42c0.74,0.32,1.54,0.5,2.35,0.51L438.1,165.95z"/>
	<path class="st1" d="M451.52,167.31v-16.13l11.36,12.4v-11.79h1.76v16.13l-11.35-12.27v11.67H451.52z"/>
	<path class="st1" d="M484.69,158.69c0.91,0.35,1.7,0.94,2.3,1.71c0.56,0.73,0.88,1.62,0.89,2.54c0.06,1.29-0.44,2.55-1.37,3.45
		c-1.9,1.59-4.62,1.75-6.69,0.38c-0.82-0.69-1.38-1.63-1.6-2.68l1.6-0.81c0.16,0.81,0.56,1.55,1.13,2.14
		c0.53,0.48,1.23,0.74,1.95,0.72c0.83,0.04,1.63-0.25,2.25-0.8c0.58-0.54,0.89-1.3,0.86-2.09c0.01-0.65-0.2-1.29-0.61-1.8
		c-0.49-0.57-1.11-1.02-1.8-1.29l-1.88-0.81c-0.9-0.32-1.7-0.87-2.31-1.6c-0.51-0.71-0.78-1.57-0.75-2.44
		c-0.03-1.05,0.42-2.06,1.23-2.73c0.88-0.76,2.03-1.15,3.19-1.09c0.85-0.02,1.68,0.18,2.43,0.59c0.7,0.41,1.25,1.02,1.6,1.76
		l-1.52,0.97c-0.29-0.53-0.69-0.99-1.18-1.34c-0.42-0.3-0.93-0.46-1.45-0.45c-0.63-0.03-1.25,0.2-1.71,0.64
		c-0.81,0.83-0.88,2.14-0.16,3.05c0.44,0.47,0.99,0.84,1.6,1.07L484.69,158.69z"/>
	<path class="st1" d="M492.37,151.78h1.9v9.57c-0.11,1.24,0.25,2.47,1.01,3.46c1.84,1.47,4.45,1.47,6.29,0
		c0.75-0.99,1.1-2.23,0.99-3.46v-9.57h1.88v9.57c0.15,1.73-0.39,3.45-1.5,4.79c-2.65,2.08-6.38,2.08-9.03,0
		c-1.11-1.34-1.65-3.06-1.5-4.79L492.37,151.78z"/>
	<path class="st1" d="M517.47,167.91l-4.79-11.17l-1.95,10.55h-1.8l3.19-16.13l5.43,12.77l5.43-12.77l3.19,16.13h-1.8l-1.98-10.55
		L517.47,167.91z"/>
	<path class="st1" d="M537.85,167.91l-4.79-11.17l-1.95,10.55h-1.8l3.19-16.13l5.44,12.77l5.43-12.77l3.19,16.13h-1.8l-1.98-10.55
		L537.85,167.91z"/>
	<path class="st1" d="M551,167.31v-15.53h1.84v15.53L551,167.31z"/>
	<path class="st1" d="M561.48,167.31v-13.77h-4.39v-1.76h10.58v1.76h-4.37v13.77H561.48z"/>
</g>
</svg>
